<svg width="50" height="50" viewBox="0 0 50 50" fill="none" xmlns="http://www.w3.org/2000/svg">
<path d="M21.9329 16.6667L23.4852 18.0561L22.8642 18.75H21.9329V16.6667ZM31.25 14.5833C28.1652 14.5833 25.3956 15.9217 23.4852 18.0561L20.3805 15.2773C23.0479 12.2971 26.9306 10.4167 31.25 10.4167V14.5833ZM41.6667 25C41.6667 19.247 37.0029 14.5833 31.25 14.5833V10.4167C39.3042 10.4167 45.8333 16.9458 45.8333 25H41.6667ZM31.25 35.4167C37.0029 35.4167 41.6667 30.7529 41.6667 25H45.8333C45.8333 33.0542 39.3042 39.5833 31.25 39.5833V35.4167ZM16.6667 35.4167H31.25V39.5833H16.6667V35.4167ZM8.33334 27.0833C8.33334 31.6856 12.0643 35.4167 16.6667 35.4167V39.5833C9.76311 39.5833 4.16667 33.9869 4.16667 27.0833H8.33334ZM16.6667 18.75C12.0643 18.75 8.33334 22.481 8.33334 27.0833H4.16667C4.16667 20.1798 9.76311 14.5833 16.6667 14.5833V18.75ZM21.9329 18.75H16.6667V14.5833H21.9329V18.75Z" fill="#33363F"/>
<path d="M33.9952 37.1948C36.2944 36.6773 38.4002 35.5204 40.0702 33.8575C41.74 32.1946 42.9058 30.0936 43.4331 27.7967C43.9604 25.4998 43.8277 23.1008 43.0502 20.8761C42.2727 18.6514 40.8821 16.6918 39.039 15.2234C37.1958 13.755 34.975 12.8375 32.6329 12.5767C30.2908 12.316 27.9227 12.7227 25.8017 13.7499C23.6806 14.777 21.8933 16.3828 20.6456 18.3821C19.398 20.3813 18.7408 22.6925 18.7501 25.0492" stroke="#33363F" stroke-width="4"/>
</svg>
