<svg width="50" height="50" viewBox="0 0 50 50" fill="none" xmlns="http://www.w3.org/2000/svg">
<path d="M18.5747 39.5512C18.2891 39.5725 18.0002 39.5833 17.7083 39.5833V43.75C18.1036 43.75 18.4959 43.7352 18.8845 43.7062L18.5747 39.5512ZM17.7083 39.5833C11.3801 39.5833 6.25001 34.4533 6.25001 28.125H2.08334C2.08334 36.7544 9.07889 43.75 17.7083 43.75V39.5833ZM6.25001 28.125C6.25001 21.7967 11.3801 16.6667 17.7083 16.6667V12.5C9.07889 12.5 2.08334 19.4955 2.08334 28.125H6.25001ZM17.7083 16.6667C22.3956 16.6667 26.4302 19.4815 28.205 23.5215L32.0198 21.8456C29.6042 16.3469 24.1077 12.5 17.7083 12.5V16.6667ZM33.3333 27.0833C36.7852 27.0833 39.5833 29.8815 39.5833 33.3333H43.75C43.75 27.5804 39.0863 22.9167 33.3333 22.9167V27.0833ZM39.5833 33.3333C39.5833 36.7852 36.7852 39.5833 33.3333 39.5833V43.75C39.0863 43.75 43.75 39.0862 43.75 33.3333H39.5833ZM33.3333 39.5833H18.769V43.75H33.3333V39.5833ZM18.769 39.5833C19.9091 39.5833 20.8333 40.5075 20.8333 41.6477H16.6667C16.6667 42.8087 17.608 43.75 18.769 43.75V39.5833ZM28.205 23.5215C29.0236 25.3848 30.8702 27.0833 33.3333 27.0833V22.9167C32.93 22.9167 32.3542 22.6067 32.0198 21.8456L28.205 23.5215ZM18.8845 43.7062C17.6891 43.7954 16.6667 42.85 16.6667 41.6477H20.8333C20.8333 40.4231 19.7921 39.4604 18.5747 39.5512L18.8845 43.7062Z" fill="#33363F"/>
<path d="M37.2469 26.8798C38.7796 26.5348 40.1836 25.7635 41.2967 24.655C42.41 23.5465 43.1873 22.1456 43.5388 20.6145C43.8902 19.0832 43.8017 17.4838 43.2833 16.0007C42.7652 14.5176 41.8381 13.2112 40.6094 12.2323C39.3806 11.2533 37.9 10.6416 36.3386 10.4678C34.7773 10.294 33.1983 10.5651 31.7844 11.2499C30.3704 11.9347 29.179 13.0052 28.3471 14.338C27.5152 15.6708 27.0773 17.2116 27.0833 18.7827" stroke="#33363F" stroke-width="4"/>
</svg>
