<svg width="10" height="14" viewBox="0 0 10 14" fill="none" xmlns="http://www.w3.org/2000/svg">
<path d="M5 0.5L5.35355 0.146447C5.15829 -0.0488155 4.84171 -0.0488155 4.64645 0.146447L5 0.5ZM5 0.5C4.64645 0.146447 4.64635 0.146541 4.64624 0.146652C4.64618 0.146712 4.64605 0.14684 4.64593 0.14696C4.64569 0.1472 4.64539 0.147509 4.64501 0.147886C4.64426 0.148641 4.64323 0.149669 4.64194 0.150968C4.63936 0.153567 4.63571 0.157252 4.63103 0.162003C4.62166 0.171505 4.60816 0.185274 4.59079 0.203159C4.55605 0.238925 4.50584 0.291166 4.44238 0.358659C4.31549 0.493612 4.1354 0.689738 3.91983 0.937235C3.48919 1.43168 2.91451 2.13396 2.3389 2.9654C1.20317 4.6059 0 6.83875 0 9H1C1 7.16125 2.04683 5.1441 3.1611 3.5346C3.71049 2.74104 4.26081 2.06832 4.67392 1.59402C4.88023 1.35714 5.0517 1.17045 5.1709 1.04368C5.23048 0.980318 5.27696 0.931974 5.30814 0.899869C5.32373 0.883817 5.33549 0.87183 5.34315 0.864059C5.34698 0.860174 5.34979 0.857343 5.35153 0.855585C5.3524 0.854707 5.35301 0.854096 5.35335 0.853757C5.35352 0.853587 5.35362 0.853485 5.35366 0.853451C5.35367 0.853434 5.35365 0.85346 5.35366 0.853451C5.35361 0.853494 5.35355 0.853553 5 0.5ZM10 9C10 6.83875 8.79683 4.6059 7.6611 2.9654C7.08549 2.13396 6.51081 1.43168 6.08017 0.937235C5.8646 0.689738 5.68451 0.493612 5.55762 0.358659C5.49416 0.291166 5.44395 0.238925 5.40921 0.203159C5.39184 0.185274 5.37834 0.171505 5.36897 0.162003C5.36429 0.157252 5.36064 0.153567 5.35806 0.150968C5.35677 0.149669 5.35574 0.148641 5.35499 0.147886C5.35461 0.147509 5.35431 0.1472 5.35407 0.14696C5.35395 0.14684 5.35382 0.146712 5.35376 0.146652C5.35365 0.146541 5.35355 0.146447 5 0.5C4.64645 0.853553 4.64639 0.853494 4.64634 0.853451C4.64635 0.85346 4.64633 0.853434 4.64634 0.853451C4.64638 0.853485 4.64648 0.853587 4.64665 0.853757C4.64699 0.854096 4.6476 0.854707 4.64847 0.855585C4.65021 0.857343 4.65302 0.860174 4.65685 0.864059C4.66451 0.87183 4.67627 0.883817 4.69186 0.899869C4.72304 0.931974 4.76952 0.980318 4.8291 1.04368C4.9483 1.17045 5.11977 1.35714 5.32608 1.59402C5.73919 2.06832 6.28951 2.74104 6.8389 3.5346C7.95317 5.1441 9 7.16125 9 9H10ZM9 9C9 11.2091 7.20914 13 5 13V14C7.76142 14 10 11.7614 10 9H9ZM5 13C2.79086 13 1 11.2091 1 9H0C0 11.7614 2.23858 14 5 14V13Z" fill="#222222"/>
</svg>
