<svg width="50" height="50" viewBox="0 0 50 50" fill="none" xmlns="http://www.w3.org/2000/svg">
<path d="M25 25H12.5V29.1667H25V25ZM37.5 25H25V29.1667H37.5V25ZM41.6667 20.8333C41.6667 23.1346 39.8013 25 37.5 25V29.1667C42.1023 29.1667 45.8333 25.4356 45.8333 20.8333H41.6667ZM37.5 16.6667C39.8013 16.6667 41.6667 18.5321 41.6667 20.8333H45.8333C45.8333 16.2309 42.1023 12.5 37.5 12.5V16.6667ZM36.409 11.5528C34.4567 7.20299 30.0852 4.16666 25 4.16666V8.33332C28.3848 8.33332 31.3027 10.3515 32.6075 13.2589L36.409 11.5528ZM25 4.16666C19.9148 4.16666 15.5433 7.20299 13.5911 11.5528L17.3925 13.2589C18.6973 10.3515 21.6152 8.33332 25 8.33332V4.16666ZM12.5 12.5C7.89763 12.5 4.16667 16.2309 4.16667 20.8333H8.33333C8.33333 18.5321 10.1988 16.6667 12.5 16.6667V12.5ZM4.16667 20.8333C4.16667 25.4356 7.89763 29.1667 12.5 29.1667V25C10.1988 25 8.33333 23.1346 8.33333 20.8333H4.16667ZM13.5911 11.5528C13.2686 12.2714 12.7695 12.5 12.5 12.5V16.6667C14.8974 16.6667 16.623 14.9733 17.3925 13.2589L13.5911 11.5528ZM37.5 12.5C37.2306 12.5 36.7315 12.2714 36.409 11.5528L32.6075 13.2589C33.3771 14.9733 35.1027 16.6667 37.5 16.6667V12.5Z" fill="#33363F"/>
<path d="M25 39.5833V35.4167" stroke="#33363F" stroke-width="3" stroke-linecap="round"/>
<path d="M35.4167 41.6667V35.4167" stroke="#33363F" stroke-width="3" stroke-linecap="round"/>
<path d="M14.5833 43.75V35.4167" stroke="#33363F" stroke-width="3" stroke-linecap="round"/>
</svg>
