<svg width="50" height="50" viewBox="0 0 50 50" fill="none" xmlns="http://www.w3.org/2000/svg">
<path d="M25 31.25C28.4518 31.25 31.25 28.4518 31.25 25C31.25 21.5482 28.4518 18.75 25 18.75C21.5482 18.75 18.75 21.5482 18.75 25C18.75 28.4518 21.5482 31.25 25 31.25Z" stroke="#33363F" stroke-width="4"/>
<path d="M25 16.6667V12.5M25 12.5V6.25M25 12.5L18.75 8.33333M25 12.5L31.25 8.33333" stroke="#33363F" stroke-width="4" stroke-linecap="round"/>
<path d="M33.3333 25H37.5M37.5 25H43.75M37.5 25L41.6666 18.75M37.5 25L41.6666 31.25" stroke="#33363F" stroke-width="4" stroke-linecap="round"/>
<path d="M25 33.3333V37.5M25 37.5V43.75M25 37.5L18.75 41.6667M25 37.5L31.25 41.6667" stroke="#33363F" stroke-width="4" stroke-linecap="round"/>
<path d="M16.6667 25H12.5M12.5 25H6.25M12.5 25L8.33333 18.75M12.5 25L8.33333 31.25" stroke="#33363F" stroke-width="4" stroke-linecap="round"/>
</svg>
