<svg width="50" height="50" viewBox="0 0 50 50" fill="none" xmlns="http://www.w3.org/2000/svg">
<path d="M19.9344 36.9296C20.7617 37.0523 21.7831 37.0773 22.9167 37.0821V39.9246C22.9167 39.9608 22.9167 39.9971 22.9167 40.0335C22.9164 40.7075 22.9162 41.3944 22.9796 41.92C23.0127 42.1942 23.0821 42.6221 23.2885 43.0465C23.5264 43.5354 24.0069 44.1242 24.8367 44.35C25.6662 44.576 26.3787 44.3121 26.8317 44.0113C27.2248 43.7502 27.5019 43.4165 27.6692 43.1971C27.9904 42.776 28.3385 42.184 28.68 41.6029C28.6985 41.5717 28.7169 41.5404 28.7352 41.5092L31.4354 36.919C31.461 36.8752 31.4867 36.8317 31.5121 36.7883C32.2658 35.5073 32.9471 34.3494 33.3406 33.3767C33.7537 32.3554 34.0898 30.9656 33.3077 29.5979C32.5252 28.2298 31.1556 27.8152 30.0656 27.6538C29.2383 27.531 28.2169 27.506 27.0833 27.5013V24.6588C27.0833 24.6225 27.0833 24.5863 27.0833 24.5498C27.0835 23.8758 27.0837 23.189 27.0204 22.6633C26.9873 22.3892 26.9179 21.9613 26.7114 21.5369C26.4735 21.0479 25.9931 20.4593 25.1633 20.2333C24.3337 20.0074 23.6212 20.2712 23.1683 20.572C22.7752 20.8331 22.4981 21.1669 22.3308 21.3863C22.0096 21.8073 21.6614 22.3994 21.32 22.9804C21.3014 23.0117 21.2831 23.0429 21.2648 23.0742L18.5646 27.6644C18.539 27.7081 18.5134 27.7517 18.4879 27.795C17.7341 29.076 17.0528 30.234 16.6593 31.2067C16.2462 32.2279 15.9101 33.6177 16.6923 34.9854C17.4749 36.3535 18.8444 36.7681 19.9344 36.9296Z" stroke="#33363F" stroke-width="4"/>
<path fill-rule="evenodd" clip-rule="evenodd" d="M25 4.16666C19.9148 4.16666 15.5433 7.20299 13.5911 11.5528C13.2686 12.2714 12.7694 12.5 12.5 12.5C7.89761 12.5 4.16666 16.2309 4.16666 20.8333C4.16666 24.7204 6.82803 27.9858 10.428 28.9071C10.4357 28.6912 10.4486 28.5148 10.4701 28.3508C10.6404 27.0577 11.2014 25.8914 12.0316 24.9739C9.95089 24.7412 8.33332 22.9762 8.33332 20.8333C8.33332 18.5321 10.1988 16.6667 12.5 16.6667C14.8973 16.6667 16.623 14.9733 17.3925 13.2589C18.6973 10.3515 21.6152 8.33332 25 8.33332C28.3848 8.33332 31.3027 10.3515 32.6075 13.2589C33.3771 14.9733 35.1027 16.6667 37.5 16.6667C39.8012 16.6667 41.6667 18.5321 41.6667 20.8333C41.6667 22.9762 40.0492 24.7412 37.9683 24.9739C38.7985 25.8914 39.3596 27.0577 39.5298 28.3508C39.5515 28.5148 39.5644 28.6912 39.5719 28.9071C43.1719 27.9858 45.8333 24.7204 45.8333 20.8333C45.8333 16.2309 42.1023 12.5 37.5 12.5C37.2306 12.5 36.7314 12.2714 36.409 11.5528C34.4567 7.20299 30.0852 4.16666 25 4.16666Z" fill="#33363F"/>
</svg>
