<svg width="24" height="24" viewBox="0 0 24 24" fill="none" xmlns="http://www.w3.org/2000/svg">
<circle cx="12" cy="12" r="4" stroke="#222222"/>
<path d="M12 8V4" stroke="#222222"/>
<path d="M12 20V16" stroke="#222222"/>
<path d="M9.17169 9.1712L6.34326 6.34277" stroke="#222222"/>
<path d="M16 12L20 12" stroke="#222222"/>
<path d="M4 12L8 12" stroke="#222222"/>
<path d="M14.8283 9.1712L17.6567 6.34277" stroke="#222222"/>
<path d="M6.3432 17.6566L9.17163 14.8281" stroke="#222222"/>
<path d="M14.847 14.7709C14.7175 14.7547 14.409 14.4942 14.5014 14.5865C14.6357 14.7208 14.7698 14.8549 14.9047 14.9898C14.9583 15.0435 15.0859 15.0785 15.1185 15.1396C15.13 15.1613 15.0121 15.0934 14.9981 15.082C14.9345 15.0299 14.8511 15.0116 14.7907 14.9552C14.6588 14.8321 14.4926 14.838 14.3401 14.7658C14.2895 14.7418 14.1946 14.6582 14.1442 14.6582C14.0883 14.6582 14.2549 14.846 14.2709 14.8631C14.3434 14.9398 14.3498 15.0419 14.3977 15.1281C14.415 15.1592 14.4527 15.2176 14.4553 15.2497C14.457 15.2705 14.4716 15.3732 14.4835 15.388C14.5925 15.5243 14.2599 15.4079 14.2133 15.3828C14.117 15.331 14.0149 15.301 13.9253 15.2369C13.901 15.2196 13.8085 15.1423 13.787 15.1396C13.7649 15.1368 13.7437 15.0832 13.7307 15.0615C13.7114 15.0294 13.7982 15.1054 13.81 15.1409C13.832 15.2068 13.8772 15.2663 13.8792 15.3368C13.8809 15.3975 13.8838 15.4985 13.9073 15.5544C13.946 15.6462 13.9053 15.7469 13.9265 15.8425C13.9341 15.8767 13.9807 15.9462 13.9137 15.9462C13.8762 15.9462 13.8292 15.9208 13.81 15.8873C13.7581 15.7965 13.7065 15.6824 13.6948 15.5774C13.688 15.5163 13.6638 15.3867 13.6142 15.347C13.5747 15.3154 13.5148 15.3269 13.4644 15.324C13.4275 15.3218 13.257 15.2524 13.257 15.3355C13.257 15.5064 13.3952 15.6532 13.3952 15.8194C13.3952 15.9136 13.4075 16.0428 13.4464 16.1305C13.464 16.17 13.384 16.1614 13.3722 16.1408C13.3401 16.0847 13.3065 16.0428 13.28 15.9833C13.2472 15.9096 13.1698 15.8282 13.1648 15.7388C13.1609 15.6696 13.0957 15.6079 13.0957 15.5429C13.0957 15.4683 13.0286 15.431 12.9856 15.388C12.92 15.3224 12.9926 15.4989 13.0048 15.5416C13.0471 15.6899 13.0559 15.87 13.1302 16.0038C13.1669 16.0698 13.1386 16.1695 13.0905 16.2176C13.0172 16.2909 12.9649 16.2148 13.0265 16.3379" stroke="white" stroke-linecap="round"/>
<path d="M13.188 15.9692C13.0409 15.9692 13.0497 15.804 13.0497 15.6812C13.0497 15.6226 13.0036 15.5779 13.0036 15.5083C13.0036 15.3751 12.9993 15.5609 13.0049 15.6005C13.0253 15.7435 13.0497 15.8692 13.0497 16.0153C13.0497 16.0499 13.0497 16.0844 13.0497 16.119C13.0497 16.1814 13.0323 16.1523 13.0036 16.1881C12.975 16.224 12.9578 16.3381 13.0036 16.361" stroke="white" stroke-linecap="round"/>
<path d="M14.248 13.8491C14.3033 13.8491 14.4242 13.9218 14.4324 13.9874C14.4409 14.0556 14.6371 14.1263 14.6987 14.1487C14.802 14.1862 14.8938 14.2271 15.0021 14.2549C15.1109 14.2829 15.2159 14.3161 15.326 14.3381C15.3848 14.3499 15.458 14.3492 15.5104 14.3791C15.5736 14.4152 15.6912 14.4252 15.7639 14.4252C15.8171 14.4252 16.0004 14.4568 15.8932 14.4009C15.6189 14.2578 15.2932 14.2138 15.02 14.0667C14.935 14.0209 14.8264 14.0219 14.7435 13.9758C14.6763 13.9385 14.6072 13.9413 14.7371 13.9413C14.9271 13.9413 15.116 13.9965 15.303 14.0283C15.4224 14.0487 15.5556 14.0334 15.6768 14.0334C15.7993 14.0334 15.9218 14.0334 16.0443 14.0334C16.1942 14.0334 15.9377 14.0334 15.9021 14.0334C15.6961 14.0334 15.4946 14.0032 15.2902 13.9822C15.1675 13.9696 15.0455 13.9533 14.9394 13.9003C14.899 13.8801 14.818 13.8948 14.7832 13.867C14.7613 13.8495 14.9914 13.8078 15.0418 13.8043C15.3833 13.7807 15.7267 13.826 16.0686 13.826C16.1189 13.826 16.2196 13.826 16.2196 13.826C16.2196 13.826 16.0199 13.826 15.9201 13.826C15.725 13.826 15.5268 13.7799 15.3324 13.7799C15.3143 13.7799 15.1547 13.7744 15.2274 13.7582C15.2767 13.7472 15.3515 13.7339 15.4003 13.7339C15.5108 13.7339 15.5986 13.7108 15.7114 13.7108C15.818 13.7108 15.9245 13.7569 16.0225 13.7569" stroke="white" stroke-linecap="round"/>
<path d="M16.392 13.6364H16.9205V16.5256C16.9205 16.8239 16.8501 17.0902 16.7095 17.3246C16.5703 17.5575 16.3736 17.7415 16.1193 17.8764C15.8651 18.0099 15.5668 18.0767 15.2244 18.0767C14.8821 18.0767 14.5838 18.0099 14.3295 17.8764C14.0753 17.7415 13.8778 17.5575 13.7372 17.3246C13.598 17.0902 13.5284 16.8239 13.5284 16.5256V13.6364H14.0568V16.483C14.0568 16.696 14.1037 16.8857 14.1974 17.0518C14.2912 17.2166 14.4247 17.3466 14.598 17.4418C14.7727 17.5355 14.9815 17.5824 15.2244 17.5824C15.4673 17.5824 15.6761 17.5355 15.8509 17.4418C16.0256 17.3466 16.1591 17.2166 16.2514 17.0518C16.3452 16.8857 16.392 16.696 16.392 16.483V13.6364ZM18.1547 13.6364L19.4501 17.3097H19.5012L20.7967 13.6364H21.3507L19.7484 18H19.2029L17.6007 13.6364H18.1547Z" fill="black"/>
</svg>
